<svg height="371pt" viewBox="-20 0 371 371.36043" width="371pt" xmlns="http://www.w3.org/2000/svg"><path d="m290.550781 223.460938-236.410156-115.398438c-9.039063-4.683594-19.828125 1.878906-19.828125 12.058594v230.796875c0 10.183593 10.789062 16.742187 19.828125 12.058593l236.410156-115.398437c9.777344-5.0625 9.777344-19.050781 0-24.117187zm0 0" fill="#0e65e5"/><path d="m47.921875 371.359375c-3.664063 0-7.339844-1.003906-10.632813-3.007813-6.140624-3.734374-9.800781-10.25-9.800781-17.433593v-230.792969c0-7.1875 3.660157-13.703125 9.800781-17.4375 6.132813-3.734375 13.605469-3.996094 19.992188-.683594l236.261719 115.324219c.050781.023437.101562.042969.148437.070313 6.796875 3.519531 11.019532 10.464843 11.019532 18.121093s-4.222657 14.601563-11.019532 18.121094l-236.558594 115.46875c-2.890624 1.5-6.046874 2.25-9.210937 2.25zm-.046875-257.992187c-1.632812 0-2.878906.613281-3.492188.984374-.972656.59375-3.242187 2.339844-3.242187 5.773438v230.792969c0 3.429687 2.269531 5.179687 3.242187 5.773437.976563.589844 3.574219 1.800782 6.617188.226563l236.554688-115.472657c2.136718-1.105468 3.5-3.351562 3.5-5.925781 0-2.550781-1.339844-4.777343-3.585938-5.964843l-236.320312-115.359376c-1.191407-.613281-2.300782-.828124-3.273438-.828124zm0 0" fill="#0e65e5"/><path d="m317.859375 182.5-236.410156-115.398438c-9.042969-4.683593-19.828125 1.878907-19.828125 12.058594v230.796875c0 10.183594 10.785156 16.742188 19.828125 12.058594l236.40625-115.394531c9.78125-5.066406 9.78125-19.054688.003906-24.121094zm0 0" fill="#d7e9ff"/><g fill="#0e65e5"><path d="m75.226562 330.402344c-3.660156 0-7.335937-1.003906-10.628906-3.007813-6.140625-3.734375-9.804687-10.25-9.804687-17.4375v-230.792969c0-7.1875 3.664062-13.703124 9.804687-17.4375 6.132813-3.734374 13.601563-3.992187 19.988282-.683593l236.265624 115.324219c.050782.023437.101563.046874.144532.074218 6.796875 3.519532 11.023437 10.460938 11.023437 18.117188s-4.226562 14.601562-11.023437 18.121094l-236.554688 115.46875c-2.890625 1.5-6.046875 2.253906-9.214844 2.253906zm-.042968-257.996094c-1.632813 0-2.882813.613281-3.492188.984375-.976562.59375-3.246094 2.34375-3.246094 5.773437v230.792969c0 3.429688 2.269532 5.179688 3.246094 5.773438.972656.589843 3.570313 1.804687 6.613282.226562l236.558593-115.46875c2.136719-1.109375 3.5-3.355469 3.5-5.929687 0-2.546875-1.339843-4.777344-3.589843-5.964844l-236.320313-115.355469c-1.191406-.613281-2.300781-.832031-3.269531-.832031zm0 0"/><path d="m47.96875 47.785156c-1.746094 0-3.496094-.664062-4.828125-2l-17.066406-17.066406c-2.667969-2.664062-2.667969-6.984375 0-9.652344 2.664062-2.664062 6.988281-2.664062 9.652343 0l17.066407 17.066406c2.667969 2.667969 2.667969 6.988282 0 9.652344-1.332031 1.335938-3.078125 2-4.824219 2zm0 0"/><path d="m82.101562 40.960938c-3.769531 0-6.828124-3.058594-6.828124-6.828126v-27.304687c0-3.773437 3.058593-6.828125 6.828124-6.828125 3.769532 0 6.824219 3.054688 6.824219 6.828125v27.304687c0 3.769532-3.054687 6.828126-6.824219 6.828126zm0 0"/><path d="m34.3125 75.09375h-27.304688c-3.769531 0-6.828124-3.058594-6.828124-6.828125s3.058593-6.824219 6.828124-6.824219h27.304688c3.769531 0 6.828125 3.054688 6.828125 6.824219s-3.058594 6.828125-6.828125 6.828125zm0 0"/></g><path d="m136.714844 307.199219c-3.769532 0-6.828125-3.054688-6.828125-6.824219v-27.308594c0-3.769531 3.058593-6.828125 6.828125-6.828125 3.769531 0 6.824218 3.058594 6.824218 6.828125v27.308594c0 3.769531-3.054687 6.824219-6.824218 6.824219zm0 0" fill="#fff"/><path d="m150.367188 293.546875h-27.308594c-3.769532 0-6.824219-3.058594-6.824219-6.828125s3.054687-6.824219 6.824219-6.824219h27.308594c3.769531 0 6.828124 3.054688 6.828124 6.824219s-3.058593 6.828125-6.828124 6.828125zm0 0" fill="#fff"/><path d="m170.84375 143.359375c-.949219 0-1.90625-.195313-2.820312-.613281l-75.09375-34.132813c-3.433594-1.558593-4.949219-5.605469-3.386719-9.035156 1.558593-3.433594 5.621093-4.945313 9.035156-3.390625l75.09375 34.132812c3.433594 1.5625 4.949219 5.605469 3.390625 9.039063-1.144531 2.515625-3.625 4-6.21875 4zm0 0" fill="#fff"/></svg>